<?xml version="1.0" encoding="UTF-8"?>
<!DOCTYPE svg PUBLIC "-//W3C//DTD SVG 1.1//EN" "http://www.w3.org/Graphics/SVG/1.1/DTD/svg11.dtd">
<svg xmlns="http://www.w3.org/2000/svg" version="1.1" width="1498px" height="436px" style="shape-rendering:geometricPrecision; text-rendering:geometricPrecision; image-rendering:optimizeQuality; fill-rule:evenodd; clip-rule:evenodd" xmlns:xlink="http://www.w3.org/1999/xlink">
<g><path style="opacity:0.952" fill="#fefefe" d="M 1208.5,-0.5 C 1219.17,-0.5 1229.83,-0.5 1240.5,-0.5C 1240.67,98.8339 1240.5,198.167 1240,297.5C 1230.33,298.833 1220.67,298.833 1211,297.5C 1210.5,284.838 1210.33,272.171 1210.5,259.5C 1209.32,259.281 1208.32,259.614 1207.5,260.5C 1191,282.593 1169,295.76 1141.5,300C 1099.19,304.584 1064.36,290.75 1037,258.5C 1016.42,227.245 1010.08,193.245 1018,156.5C 1031.31,110.087 1061.81,82.9205 1109.5,75C 1150.66,69.3353 1183.66,82.8353 1208.5,115.5C 1208.53,76.9332 1208.53,38.2666 1208.5,-0.5 Z M 1112.5,102.5 C 1145.01,97.9776 1171.84,107.978 1193,132.5C 1207.19,154.112 1212.19,177.778 1208,203.5C 1201.34,241.494 1179.17,264.327 1141.5,272C 1100.54,276.308 1071.04,260.141 1053,223.5C 1043.67,195.866 1045,168.866 1057,142.5C 1069.52,120.801 1088.02,107.468 1112.5,102.5 Z"/></g>
<g><path style="opacity:0.95" fill="#fefefe" d="M 445.5,2.5 C 492.168,2.33334 538.835,2.50001 585.5,3C 605.289,3.89988 623.956,8.89988 641.5,18C 671.068,38.3418 681.568,66.1751 673,101.5C 665.826,121.673 652.659,136.506 633.5,146C 671.109,156.04 690.442,180.54 691.5,219.5C 690.487,253.027 674.487,276.194 643.5,289C 631.077,293.07 618.411,296.07 605.5,298C 551.792,298.829 498.126,298.662 444.5,297.5C 444.167,248.5 443.833,199.5 443.5,150.5C 443.505,100.956 444.171,51.6228 445.5,2.5 Z M 476.5,29.5 C 510.502,29.3333 544.502,29.5 578.5,30C 595.628,30.0453 611.295,34.712 625.5,44C 641.287,58.6305 646.453,76.4638 641,97.5C 635.358,114.474 623.858,125.307 606.5,130C 597.021,132.727 587.354,134.393 577.5,135C 543.835,135.5 510.168,135.667 476.5,135.5C 476.5,100.167 476.5,64.8333 476.5,29.5 Z M 476.5,162.5 C 516.168,162.333 555.835,162.5 595.5,163C 610.732,163.969 625.065,167.969 638.5,175C 646.639,181.136 652.472,188.969 656,198.5C 659.316,212.699 658.65,226.699 654,240.5C 646.346,253.472 635.18,261.972 620.5,266C 609.982,268.531 599.316,270.197 588.5,271C 551.168,271.5 513.835,271.667 476.5,271.5C 476.5,235.167 476.5,198.833 476.5,162.5 Z"/></g>
<g><path style="opacity:0.908" fill="#fefefe" d="M 231.5,20.5 C 248.34,19.5023 254.84,27.1689 251,43.5C 244.405,52.3522 236.238,54.1856 226.5,49C 216.356,37.4483 218.022,27.9483 231.5,20.5 Z"/></g>
<g><path style="opacity:0.929" fill="#fefefe" d="M 91.5,31.5 C 120.344,28.5321 147.344,34.3655 172.5,49C 173.022,49.5613 173.355,50.228 173.5,51C 171.294,57.1515 168.627,62.9848 165.5,68.5C 137.265,51.2228 107.265,47.3895 75.5,57C 54.8541,67.7963 49.0207,83.963 58,105.5C 63.4939,111.908 70.1606,116.574 78,119.5C 97.7088,125.377 117.542,130.877 137.5,136C 154.356,140.875 167.856,150.375 178,164.5C 188.815,197.479 178.982,221.979 148.5,238C 140.112,241.351 131.445,243.685 122.5,245C 89.9508,249.025 59.9508,242.358 32.5,225C 29.8678,222.873 27.5345,220.54 25.5,218C 27.5989,211.634 30.5989,205.801 34.5,200.5C 65.3038,224.944 99.6371,231.444 137.5,220C 156.381,211.069 162.881,196.569 157,176.5C 150.773,166.626 141.939,160.126 130.5,157C 108.311,151.296 86.3113,144.963 64.5,138C 33.5391,124.016 23.3725,100.849 34,68.5C 40.9261,54.2426 51.7595,44.0759 66.5,38C 74.7616,35.0192 83.0949,32.8525 91.5,31.5 Z"/></g>
<g><path style="opacity:0.964" fill="#fefefe" d="M 1386.5,74.5 C 1411.19,72.2717 1434.52,76.7717 1456.5,88C 1478.83,103.904 1490,125.738 1490,153.5C 1490.67,201.5 1490.67,249.5 1490,297.5C 1480.25,298.486 1470.42,298.819 1460.5,298.5C 1460.67,287.495 1460.5,276.495 1460,265.5C 1443.82,287.342 1421.99,298.842 1394.5,300C 1368.34,302.544 1344.67,296.211 1323.5,281C 1306.08,263.736 1300.24,243.236 1306,219.5C 1312.98,197.191 1327.81,183.024 1350.5,177C 1358.4,175.109 1366.4,173.776 1374.5,173C 1402.83,172.5 1431.16,172.333 1459.5,172.5C 1461.26,155.947 1458.42,140.281 1451,125.5C 1440.55,110.52 1426.05,102.687 1407.5,102C 1376.47,99.4583 1348.8,107.792 1324.5,127C 1323.67,127.688 1323,127.521 1322.5,126.5C 1318.67,120.167 1314.83,113.833 1311,107.5C 1310.28,105.888 1310.45,104.388 1311.5,103C 1333.85,86.4956 1358.85,76.9956 1386.5,74.5 Z M 1379.5,195.5 C 1406.17,195.5 1432.83,195.5 1459.5,195.5C 1466.34,234.665 1451.01,260.498 1413.5,273C 1398.89,275.874 1384.23,276.208 1369.5,274C 1344.41,267.981 1332.91,252.147 1335,226.5C 1337.79,214.718 1344.62,206.218 1355.5,201C 1363.45,198.314 1371.45,196.481 1379.5,195.5 Z"/></g>
<g><path style="opacity:0.973" fill="#fefefe" d="M 752.5,76.5 C 762.833,76.5 773.167,76.5 783.5,76.5C 783.333,122.168 783.5,167.835 784,213.5C 788.565,252.227 810.398,271.894 849.5,272.5C 896.397,270.103 921.23,245.437 924,198.5C 924.5,157.835 924.667,117.168 924.5,76.5C 934.5,76.5 944.5,76.5 954.5,76.5C 954.5,150.5 954.5,224.5 954.5,298.5C 944.833,298.5 935.167,298.5 925.5,298.5C 925.667,285.496 925.5,272.496 925,259.5C 912.798,278.697 895.631,291.197 873.5,297C 842.14,304.398 812.806,299.731 785.5,283C 767.042,267.925 756.542,248.425 754,224.5C 752.564,175.185 752.064,125.851 752.5,76.5 Z"/></g>
<g><path style="opacity:0.925" fill="#fefefe" d="M 376.5,83.5 C 378.857,83.3367 381.19,83.5034 383.5,84C 384.667,84.5 385.5,85.3333 386,86.5C 386.79,92.5522 386.624,98.5522 385.5,104.5C 372.66,104.593 360.66,107.76 349.5,114C 338.03,123.141 331.197,134.974 329,149.5C 328.667,180.5 328.333,211.5 328,242.5C 327.25,243.126 326.416,243.626 325.5,244C 318.797,244.713 312.13,244.546 305.5,243.5C 305.333,191.166 305.5,138.832 306,86.5C 312.777,85.1889 319.61,85.1889 326.5,86.5C 327.833,94.5 327.833,102.5 326.5,110.5C 326.808,111.308 327.308,111.975 328,112.5C 334.806,100.681 344.64,92.5146 357.5,88C 363.912,86.2734 370.246,84.7734 376.5,83.5 Z"/></g>
<g><path style="opacity:0.884" fill="#fefefe" d="M 225.5,85.5 C 232.508,85.3337 239.508,85.5004 246.5,86C 247.126,86.7504 247.626,87.5838 248,88.5C 248.82,140.195 248.653,191.862 247.5,243.5C 240.87,244.546 234.203,244.713 227.5,244C 226.333,243.5 225.5,242.667 225,241.5C 224.18,189.471 224.347,137.471 225.5,85.5 Z"/></g>
<g><path style="opacity:0.981" fill="#fefefe" d="M 174.5,306.5 C 191.863,304.005 207.196,308.338 220.5,319.5C 237.273,305.882 255.94,302.716 276.5,310C 285.02,313.756 292.687,318.756 299.5,325C 312.705,339.203 325.538,353.703 338,368.5C 345.678,376.587 354.511,383.087 364.5,388C 388.98,397.415 405.48,389.915 414,365.5C 414.861,359.415 414.527,353.415 413,347.5C 407.993,362.255 397.826,368.089 382.5,365C 366.241,356.886 362.408,344.719 371,328.5C 380.257,318.578 391.423,315.744 404.5,320C 415.126,324.628 422.293,332.461 426,343.5C 435.723,382.381 422.223,409.548 385.5,425C 346.915,436.528 309.582,433.195 273.5,415C 253.41,405.076 235.743,391.909 220.5,375.5C 186.759,410.699 145.426,429.699 96.5,432.5C 73.3116,432.627 52.3116,426.127 33.5,413C 12.0511,392.702 6.21781,368.535 16,340.5C 25.0376,320.82 39.8709,314.32 60.5,321C 74.6666,329.83 77.8332,341.663 70,356.5C 57.6133,369.271 44.9466,369.604 32,357.5C 30.2427,354.986 28.7427,352.319 27.5,349.5C 24.1616,363.949 28.1616,376.116 39.5,386C 52.2384,392.979 65.2384,393.312 78.5,387C 83.4352,384.394 88.1019,381.394 92.5,378C 109.5,359.667 126.5,341.333 143.5,323C 152.488,314.841 162.822,309.341 174.5,306.5 Z"/></g>
</svg>
